<svg id="图层_1" data-name="图层 1" xmlns="http://www.w3.org/2000/svg" viewBox="0 0 277 277"><defs><style>.cls-1{fill:#020000;fill-rule:evenodd;}</style></defs><path class="cls-1" d="M45.84,191,35.55,219.23h-1.7l-9.68-28.37L19.5,218.69h-7l6.9-42.18h5.15l10.7,28.23L45.5,176.51h5.21l6.16,42.18h-7L45.84,191Zm21.58,15a11.19,11.19,0,0,0,1.69,6.36,5.36,5.36,0,0,0,4.68,2.51c3.11,0,5.1-1.54,5.95-4.61l6.23,1q-3,8.32-12.18,8.33a12.61,12.61,0,0,1-9.72-3.9,14.26,14.26,0,0,1-3.62-10.12q0-6.57,3.49-10.52a12,12,0,0,1,9.47-4q6,0,9.35,3.76t3.35,10.26V206ZM80,202.3a7.44,7.44,0,0,0-1.72-4.87,5.52,5.52,0,0,0-4.47-2.1,5.41,5.41,0,0,0-4.47,2.2,7.58,7.58,0,0,0-1.72,4.77Zm18.34-8c1.67-2.16,4.24-3.25,7.72-3.25a8.11,8.11,0,0,1,7.17,4.2q2.58-4.2,8.33-4.2,8.46,0,8.46,11v16.66h-6.5V204.61q0-8.54-4.67-8.54t-4.67,9.48v13.14h-6.57V205.15q0-9.08-4.13-9.08-5.14,0-5.14,9.48v13.14H91.78V192h6.57v2.36Zm65.59,11a14.2,14.2,0,0,1-3.86,10.29,13.41,13.41,0,0,1-10.12,4,13.63,13.63,0,0,1-10.19-4,14,14,0,0,1-3.93-10.25,14.16,14.16,0,0,1,3.86-10.26,13.51,13.51,0,0,1,10.16-4,13.66,13.66,0,0,1,10.19,4,14,14,0,0,1,3.89,10.25Zm-21.46.14a8.84,8.84,0,0,0,2.1,6.09,6.89,6.89,0,0,0,5.41,2.37,6.44,6.44,0,0,0,5.32-2.54,9.45,9.45,0,0,0,2-6,9.32,9.32,0,0,0-2-6,6.47,6.47,0,0,0-5.31-2.54,6.76,6.76,0,0,0-5.38,2.44,9.19,9.19,0,0,0-2.1,6.23Zm33.77-10.7q2.5-3.66,7.85-3.66a7.2,7.2,0,0,1,3.12.68l-.82,6a5.93,5.93,0,0,0-3.25-.95q-6.9,0-6.9,9.89v12.05h-6.57V192h6.57v2.77ZM188.69,192h7.59l7,16,7.31-16H218l-19,37.91h-7.31l8.26-15.3L188.69,192Zm41.7,26.74h-6.57V197.84h-3.18v-5.35h3.18v-9.62h6.57v9.62h5.21v5.35h-5.21v20.85ZM244.52,206a11.11,11.11,0,0,0,1.7,6.36,5.34,5.34,0,0,0,4.67,2.51q4.67,0,6-4.61l6.22,1q-3,8.32-12.18,8.33a12.64,12.64,0,0,1-9.72-3.9,14.26,14.26,0,0,1-3.62-10.12q0-6.57,3.49-10.52a12,12,0,0,1,9.48-4q6,0,9.34,3.76t3.35,10.26V206Zm12.6-3.66a7.44,7.44,0,0,0-1.73-4.87,5.52,5.52,0,0,0-4.47-2.1,5.41,5.41,0,0,0-4.47,2.2,7.58,7.58,0,0,0-1.72,4.77Z"/><path class="cls-1" d="M17.47,157.69l42.17-85c16.25-35.79,50.62-34.18,67.62-9l8.07,12.55,4.82-9.44C156.84,34.55,192.09,38.6,207.27,69l51.4,88.2H242.05L191.23,66.81c-9.79-16.26-35.71-9.28-27.13,11.83l44,78.53-43.06.52L114.8,68.5c-11.9-19.85-36.75-9.1-27.7,12l41.33,72.83a7.61,7.61,0,0,1,1.14,4.4Z"/></svg>